<svg width="19" height="15" viewBox="0 0 19 15" fill="none" xmlns="http://www.w3.org/2000/svg">
<path d="M18.3833 2.50004C17.7416 2.79171 17.05 2.98337 16.3333 3.07504C17.0666 2.63337 17.6333 1.93337 17.9 1.09171C17.2083 1.50837 16.4416 1.80004 15.6333 1.96671C14.975 1.25004 14.05 0.833374 13 0.833374C11.0416 0.833374 9.44162 2.43337 9.44162 4.40837C9.44162 4.69171 9.47495 4.96671 9.53329 5.22504C6.56662 5.07504 3.92495 3.65004 2.16662 1.49171C1.85828 2.01671 1.68328 2.63337 1.68328 3.28337C1.68328 4.52504 2.30828 5.62504 3.27495 6.25004C2.68328 6.25004 2.13328 6.08337 1.64995 5.83337V5.85837C1.64995 7.59171 2.88328 9.04171 4.51662 9.36671C3.99232 9.51082 3.44165 9.53079 2.90828 9.42504C3.13462 10.1354 3.5779 10.757 4.1758 11.2025C4.7737 11.6479 5.49616 11.8948 6.24162 11.9084C4.97801 12.9088 3.41163 13.4495 1.79995 13.4417C1.51662 13.4417 1.23328 13.425 0.949951 13.3917C2.53328 14.4084 4.41662 15 6.43328 15C13 15 16.6083 9.55004 16.6083 4.82504C16.6083 4.66671 16.6083 4.51671 16.6 4.35837C17.3 3.85837 17.9 3.22504 18.3833 2.50004Z" fill="white"/>
</svg>
