<svg width="18" height="19" viewBox="0 0 18 19" fill="none" xmlns="http://www.w3.org/2000/svg">
<path d="M9.00039 18.0379C13.6629 18.0379 17.5382 14.1707 17.5382 9.50002C17.5382 4.83752 13.6543 0.962158 8.99182 0.962158C4.32146 0.962158 0.462891 4.83752 0.462891 9.50002C0.462891 14.1707 4.32968 18.0379 9.00039 18.0379ZM9.00075 16.615C5.04932 16.615 1.89325 13.4507 1.89325 9.50002C1.89325 5.55716 5.04075 2.38502 8.99182 2.38502C12.9343 2.38502 16.1065 5.55752 16.115 9.50002C16.1232 13.4511 12.9425 16.615 9.00003 16.615M6.99111 11.4757C8.9411 13.4343 11.4275 14.6729 12.9007 13.2079C12.9529 13.1564 13.0005 13.1005 13.0429 13.0407C13.4279 12.6139 13.5368 12.0447 13.0429 11.6764C12.6579 11.4 12.2479 11.1157 11.5529 10.63C11.0675 10.2872 10.7493 10.3704 10.3729 10.7472L10.0379 11.0736C9.93753 11.1657 9.7786 11.1575 9.66968 11.0904C9.37682 10.9147 8.88289 10.5211 8.41396 10.0525C7.9536 9.5918 7.53539 9.07323 7.3761 8.7968C7.31753 8.70466 7.27575 8.55394 7.39289 8.44537L7.71932 8.09359C8.0961 7.70037 8.17968 7.39894 7.82825 6.90501L6.7986 5.44859C6.44682 4.95466 5.93646 5.0468 5.37539 5.46537C5.3336 5.49894 5.30039 5.53252 5.26682 5.56573C3.7936 7.03894 5.04075 9.52501 6.99111 11.4754" fill="white"/>
</svg>
