<svg width="17" height="15" viewBox="0 0 17 15" fill="none" xmlns="http://www.w3.org/2000/svg">
<path fill-rule="evenodd" clip-rule="evenodd" d="M8.3337 0.833252C9.0462 0.833252 9.77703 0.851585 10.4854 0.881585L11.322 0.921585L12.1229 0.969085L12.8729 1.01992L13.5579 1.07325C14.3014 1.12983 15.001 1.44695 15.5337 1.96875C16.0663 2.49056 16.3977 3.18358 16.4695 3.92575L16.5029 4.27992L16.5654 5.03825C16.6237 5.82408 16.667 6.68075 16.667 7.49992C16.667 8.31909 16.6237 9.17575 16.5654 9.96159L16.5029 10.7199L16.4695 11.0741C16.3977 11.8164 16.0661 12.5095 15.5333 13.0313C15.0005 13.5532 14.3007 13.8702 13.557 13.9266L12.8737 13.9791L12.1237 14.0308L11.322 14.0783L10.4854 14.1183C9.76856 14.1493 9.05118 14.1654 8.3337 14.1666C7.61622 14.1654 6.89884 14.1493 6.18203 14.1183L5.34537 14.0783L4.54453 14.0308L3.79453 13.9791L3.10953 13.9266C2.36604 13.87 1.66637 13.5529 1.13374 13.0311C0.601107 12.5093 0.269692 11.8163 0.197866 11.0741L0.164533 10.7199L0.102033 9.96159C0.0385602 9.14252 0.00464925 8.32143 0.000366211 7.49992C0.000366211 6.68075 0.0436995 5.82408 0.102033 5.03825L0.164533 4.27992L0.197866 3.92575C0.269664 3.18371 0.600959 2.4908 1.13342 1.96901C1.66588 1.44722 2.36536 1.13002 3.1087 1.07325L3.79287 1.01992L4.54287 0.969085L5.34453 0.921585L6.1812 0.881585C6.89829 0.850525 7.61594 0.83441 8.3337 0.833252ZM6.66703 5.47908V9.52075C6.66703 9.90575 7.0837 10.1458 7.41703 9.95408L10.917 7.93325C10.9932 7.88941 11.0565 7.82627 11.1004 7.7502C11.1444 7.67412 11.1676 7.5878 11.1676 7.49992C11.1676 7.41204 11.1444 7.32572 11.1004 7.24964C11.0565 7.17356 10.9932 7.11043 10.917 7.06658L7.41703 5.04659C7.341 5.00269 7.25475 4.97958 7.16695 4.9796C7.07916 4.97961 6.99291 5.00274 6.91689 5.04667C6.84087 5.09059 6.77776 5.15375 6.7339 5.22981C6.69004 5.30586 6.66698 5.39212 6.66703 5.47992V5.47908Z" fill="white"/>
</svg>
